PathFileType	4	(X/Y/Z)	/Users/itak/Documents/Research/Walk-IL/dataset/trc/00293_00010.trc
DataRate	CameraRate	NumFrames	NumMarkers	Units	OrigDataRate	OrigDataStartFrame	OrigNumFrames
100.000000	100.000000	4	53	mm	100.000000	89	714
Frame#	Time	RPSI			LPSI			L3			STRN			T10			C7			CLAV			RBAK			LBAK			LSHO			LUPA			LAEL			LAOL			LWTS			LWPS			LFRA			LIFD			LHPS			LHTS			RSHO			RUPA			RAEL			RAOL			RWTS			RWPS			RFRA			RIFD			RHPS			RBHD			LFHD			RFHD			LBHD			LHIP			RHIP			RASI			LASI			LKNE			LTHI			LANK			LTIP			LTOE			LMT1			LMT5			LHEE			RKNE			RTHI			RANK			RTIP			RTOE			RMT1			RMT5			RHEE			RHTS			
		X1	Y1	Z1	X2	Y2	Z2	X3	Y3	Z3	X4	Y4	Z4	X5	Y5	Z5	X6	Y6	Z6	X7	Y7	Z7	X8	Y8	Z8	X9	Y9	Z9	X10	Y10	Z10	X11	Y11	Z11	X12	Y12	Z12	X13	Y13	Z13	X14	Y14	Z14	X15	Y15	Z15	X16	Y16	Z16	X17	Y17	Z17	X18	Y18	Z18	X19	Y19	Z19	X20	Y20	Z20	X21	Y21	Z21	X22	Y22	Z22	X23	Y23	Z23	X24	Y24	Z24	X25	Y25	Z25	X26	Y26	Z26	X27	Y27	Z27	X28	Y28	Z28	X29	Y29	Z29	X30	Y30	Z30	X31	Y31	Z31	X32	Y32	Z32	X33	Y33	Z33	X34	Y34	Z34	X35	Y35	Z35	X36	Y36	Z36	X37	Y37	Z37	X38	Y38	Z38	X39	Y39	Z39	X40	Y40	Z40	X41	Y41	Z41	X42	Y42	Z42	X43	Y43	Z43	X44	Y44	Z44	X45	Y45	Z45	X46	Y46	Z46	X47	Y47	Z47	X48	Y48	Z48	X49	Y49	Z49	X50	Y50	Z50	X51	Y51	Z51	X52	Y52	Z52	X53	Y53	Z53	

90	0.89	277.9036865234375	978.1074829101562	1168.073364257812	238.9864654541016	979.9620361328125	1337.394653320312	233.3851928710938	1055.225952148438	1264.993774414062	-35.86545944213867	1195.392333984375	1187.709228515625	219.6760711669922	1173.538696289062	1276.460693359375	135.3913269042969	1407.46435546875	1270.43310546875	6.839541912078857	1303.229248046875	1208.952514648438	229.7984008789062	1280.723022460938	1226.353637695312	114.4518127441406	1371.111450195312	1373.30224609375	10.97912216186523	1362.94970703125	1386.978271484375	21.82381820678711	1247.625366210938	1469.431396484375	24.35401153564453	1056.32958984375	1479.155639648438	102.7976608276367	1025.995483398438	1452.072998046875	-145.0326995849609	950.61376953125	1402.013305664062	-129.5918579101562	896.7547607421875	1448.1708984375	-29.01499366760254	978.367919921875	1474.761108398438	-266.5630798339844	819.624267578125	1351.236328125	-190.8801574707031	841.7581787109375	1420.325317382812	-229.7775268554688	889.1521606445312	1399.004760742188	140.9278717041016	1380.740844726562	1101.335571289062	188.5908813476562	1332.255249023438	1048.680419921875	304.7565307617188	1093.361083984375	1031.907470703125	283.033447265625	1081.911254882812	1123.333618164062	255.5401000976562	847.4121704101562	1018.895141601562	333.8071899414062	863.7059936523438	986.3239135742188	311.8087768554688	1024.69580078125	1010.103149414062	300.3223266601562	668.4354858398438	1021.624694824219	341.6909790039062	750.2518920898438	977.6083984375	148.7221527099609	1531.910522460938	1162.872192382812	-43.17671585083008	1608.423461914062	1213.040283203125	-15.40898990631104	1588.417358398438	1126.764892578125	101.6020050048828	1552.59228515625	1298.15673828125	158.4895324707031	924.6668090820312	1419.721923828125	198.5427093505859	926.7015380859375	1046.523803710938	70.08701324462891	925.3439331054688	1097.403442382812	28.54740524291992	918.2483520507812	1346.0517578125	193.4027252197266	462.4209289550781	1377.890869140625	165.5396270751953	601.8606567382812	1397.603881835938	387.1554565429688	50.75501251220703	1375.484619140625	293.2105102539062	252.9865570068359	1387.4462890625	186.9959564208984	37.98957443237305	1294.724975585938	262.2164916992188	30.32353591918945	1262.044555664062	264.0391845703125	43.54627227783203	1374.176025390625	440.1139526367188	48.80865859985352	1322.014038085938	-6.934147357940674	497.2032470703125	1044.186889648438	93.10511016845703	740.0748291015625	1023.461120605469	-110.8433837890625	54.02133941650391	1054.58642578125	-59.99343109130859	384.9732666015625	1042.734619140625	-295.2666625976562	128.8552398681641	1067.138061523438	-253.6641540527344	102.2152633666992	1116.03515625	-205.0614776611328	80.39358520507812	1012.312866210938	-74.95891571044922	33.70795822143555	1112.90087890625	273.9970092773438	732.0672607421875	988.46875	
91	0.9	271.642578125	976.7661743164062	1165.631225585938	232.3314208984375	978.7843017578125	1334.872192382812	226.7373352050781	1053.658203125	1262.51318359375	-42.19744110107422	1193.693481445312	1184.44775390625	212.960693359375	1171.766967773438	1274.09423828125	128.8410186767578	1405.771118164062	1267.816650390625	0.3119064271450043	1301.661254882812	1205.76416015625	223.2266235351562	1278.836669921875	1224.230102539062	107.4908218383789	1369.442260742188	1370.640380859375	3.981965303421021	1361.362670898438	1383.843872070312	14.2366418838501	1245.974975585938	1466.267700195312	15.58234405517578	1055.079711914062	1476.098388671875	93.89389038085938	1023.892395019531	1449.32763671875	-154.9815673828125	953.0836181640625	1397.4736328125	-140.9736175537109	898.809326171875	1443.63916015625	-38.91600799560547	978.3116455078125	1471.141845703125	-278.7846374511719	824.8113403320312	1345.265625	-203.4437103271484	845.4207763671875	1414.8525390625	-240.9832916259766	893.3551025390625	1393.423706054688	135.1866149902344	1378.984252929688	1098.760620117188	183.1893157958984	1330.651611328125	1046.48486328125	300.4477233886719	1092.29345703125	1031.097412109375	277.6595458984375	1080.681518554688	1122.221801757812	253.1500701904297	846.052490234375	1017.657409667969	331.7507629394531	862.8247680664062	986.0048828125	308.2034912109375	1023.685607910156	1009.353149414062	299.4770812988281	667.3798828125	1021.145202636719	340.73583984375	749.4510498046875	977.5307006835938	142.9569396972656	1530.255737304688	1160.504516601562	-49.17022705078125	1606.951904296875	1209.594360351562	-20.91115951538086	1586.953125	1123.47021484375	95.03434753417969	1550.927612304688	1295.491577148438	151.9006958007812	923.3889770507812	1417.112182617188	192.5893707275391	924.7977294921875	1044.042114257812	64.03645324707031	923.2347412109375	1094.716430664062	22.08350563049316	916.4168701171875	1343.367065429688	189.9150085449219	461.5468444824219	1376.62841796875	161.0144805908203	600.864990234375	1395.899536132812	386.9255676269531	51.28065872192383	1375.69580078125	291.2908325195312	252.9745788574219	1386.93896484375	187.0036010742188	37.96998977661133	1294.774291992188	262.2901611328125	30.33370208740234	1262.082275390625	263.972412109375	43.53670120239258	1374.217041015625	440.0865478515625	49.86627197265625	1322.354370117188	-12.10715389251709	494.9458312988281	1042.527221679688	88.11524200439453	737.7114868164062	1020.627197265625	-123.0833358764648	53.82611465454102	1052.79052734375	-66.34427642822266	383.8728332519531	1040.86083984375	-306.6561584472656	131.4124908447266	1061.583740234375	-266.4051208496094	104.0751495361328	1111.119140625	-215.9600372314453	81.48828887939453	1008.563110351562	-88.52358245849609	33.10243606567383	1111.745849609375	272.9379577636719	730.7279663085938	987.6165161132812	
92	0.91	265.2094116210938	975.3924560546875	1163.11865234375	225.4624786376953	977.55908203125	1332.275512695312	219.8988952636719	1052.046630859375	1259.920288085938	-48.68107604980469	1192.02685546875	1181.076904296875	206.0732421875	1169.92431640625	1271.593017578125	122.2218399047852	1404.039428710938	1265.0576171875	-6.345256328582764	1300.113403320312	1202.460815429688	216.54638671875	1276.885131835938	1221.933349609375	100.4770812988281	1367.751098632812	1367.847900390625	-3.067553520202637	1359.78515625	1380.590209960938	6.567012310028076	1244.325317382812	1462.97607421875	6.751440525054932	1053.72021484375	1472.789184570312	84.863037109375	1021.806274414062	1446.403198242188	-164.9980316162109	955.3828735351562	1392.866455078125	-152.3328094482422	900.7669677734375	1438.969970703125	-48.865478515625	978.1809692382812	1467.38232421875	-291.2920227050781	830.0573120117188	1339.423583984375	-215.8436431884766	848.84033203125	1409.317749023438	-252.1094055175781	897.2997436523438	1387.796508789062	129.3260345458984	1377.182739257812	1096.041015625	177.6234436035156	1328.979858398438	1044.137084960938	295.8613891601562	1091.11279296875	1030.093505859375	272.0364074707031	1079.357543945312	1120.91943359375	250.4456481933594	844.5812377929688	1016.353759765625	329.3375549316406	861.836181640625	985.5526123046875	304.2942810058594	1022.565124511719	1008.42724609375	298.27392578125	666.2417602539062	1020.670104980469	339.4282836914062	748.5492553710938	977.3718872070312	137.1346130371094	1528.617309570312	1158.01416015625	-55.22785949707031	1605.460815429688	1206.04248046875	-26.4793758392334	1585.488525390625	1120.072998046875	88.41646575927734	1549.256469726562	1292.706787109375	145.0911712646484	922.098388671875	1414.446533203125	186.4412689208984	922.8956909179688	1041.488647460938	57.78319931030273	921.1275634765625	1091.906372070312	15.48046970367432	914.5740966796875	1340.630004882812	186.3255462646484	460.720947265625	1375.332153320312	156.3645629882812	599.8876342773438	1394.156494140625	386.6820678710938	51.92714309692383	1375.899291992188	289.3135070800781	253.036376953125	1386.427734375	187.0164794921875	37.9514045715332	1294.8095703125	262.3714599609375	30.36508560180664	1262.139038085938	263.8764953613281	43.54311752319336	1374.255859375	440.0622863769531	51.10045623779297	1322.735107421875	-17.48887062072754	492.69482421875	1040.857177734375	82.88761901855469	735.38916015625	1017.696960449219	-133.9633178710938	53.33669281005859	1051.392333984375	-72.60026550292969	382.5441589355469	1039.072021484375	-316.8433532714844	133.0151977539062	1056.312744140625	-277.8975219726562	105.2147369384766	1106.558715820312	-225.5294342041016	81.93051147460938	1005.16357421875	-100.6928329467773	32.38288116455078	1110.993774414062	271.5252380371094	729.2973022460938	986.76904296875	
93	0.92	258.5787963867188	973.9862670898438	1160.528564453125	218.3673095703125	976.2978515625	1329.596923828125	212.8625946044922	1050.389770507812	1257.224975585938	-55.32391738891602	1190.40576171875	1177.59423828125	199.0038757324219	1168.017578125	1268.964721679688	115.5367431640625	1402.27978515625	1262.155395507812	-13.12100505828857	1298.58837890625	1199.038208007812	209.7592468261719	1274.878173828125	1219.467529296875	93.40668487548828	1366.05078125	1364.924194335938	-10.18217277526855	1358.232788085938	1377.2119140625	-1.205059885978699	1242.687622070312	1459.54443359375	-2.155153274536133	1052.295288085938	1469.251586914062	75.71498107910156	1019.761413574219	1443.307495117188	-175.0575256347656	957.4876098632812	1388.1904296875	-163.6590423583984	902.609130859375	1434.172607421875	-58.85654830932617	977.9788818359375	1463.483764648438	-303.9182739257812	835.2410888671875	1333.655517578125	-228.0377807617188	851.9537963867188	1403.754272460938	-263.1458740234375	900.9614868164062	1382.145141601562	123.3473358154297	1375.34521484375	1093.178955078125	171.8909301757812	1327.245483398438	1041.6337890625	290.9848022460938	1089.817138671875	1028.885375976562	266.1686401367188	1077.942749023438	1119.42041015625	247.4030456542969	842.9852905273438	1014.969421386719	326.5481872558594	860.741455078125	984.9533081054688	300.0619201660156	1021.330993652344	1007.313903808594	296.7132873535156	665.0211791992188	1020.196472167969	337.7424011230469	747.5447998046875	977.1195678710938	131.2485504150391	1527.0009765625	1155.39453125	-61.34672927856445	1603.969848632812	1202.388549804688	-32.11359405517578	1584.039184570312	1116.570068359375	81.75914764404297	1547.586059570312	1289.802856445312	138.0438995361328	920.8004760742188	1411.714477539062	180.0836944580078	921.0078125	1038.859375	51.314453125	919.041748046875	1088.96728515625	8.725873947143555	912.728515625	1337.826416015625	182.6141052246094	459.9564208984375	1373.99365234375	151.5731811523438	598.9420166015625	1392.3642578125	386.4101257324219	52.70318222045898	1376.085815429688	287.2767333984375	253.1985778808594	1385.908813476562	187.0325927734375	37.93279647827148	1294.83154296875	262.4507751464844	30.42741966247559	1262.216674804688	263.7414245605469	43.56899261474609	1374.29443359375	440.0207214355469	52.52166366577148	1323.144409179688	-23.07855796813965	490.4666748046875	1039.167236328125	77.38755798339844	733.1233520507812	1014.69287109375	-143.4326171875	52.49636077880859	1050.418579101562	-78.76674652099609	380.9608764648438	1037.364990234375	-325.8162536621094	133.5127258300781	1051.443237304688	-288.0694885253906	105.5527572631836	1102.49560546875	-233.7641906738281	81.64287567138672	1002.20703125	-111.3693923950195	31.50065994262695	1110.658081054688	269.7435913085938	727.7405395507812	985.939697265625	
